<svg version="1.1" id="Layer_1" xmlns="http://www.w3.org/2000/svg" xmlns:xlink="http://www.w3.org/1999/xlink" x="0px" y="0px" width="147.333px" height="28.834px" viewBox="0 0 147.333 28.834" style="enable-background:new 0 0 147.333 28.834;" xml:space="preserve">
<path style="fill:#1F1C1A;" d="M24.983,8.289c0-6.977-6.876-6.977-9.465-6.977H2.138c-0.361,0-0.654,0.293-0.654,0.655v25.028  c0,0.362,0.293,0.655,0.654,0.655h11.769c4.159,0,11.897,0,11.897-7.476c0-4.126-2.655-5.675-4.23-6.435  C23.047,12.959,24.983,11.701,24.983,8.289 M22.458,20.068c0,3.885-3.376,4.409-6.678,4.409H4.766v-9.071h11.343  C20.382,15.407,22.458,16.933,22.458,20.068 M14.729,12.378H4.766V4.343h8.978c4.092,0,7.958,0,7.958,3.982  C21.702,11.09,19.486,12.378,14.729,12.378"/>
<path style="fill:#1F1C1A;" d="M67.535,14.643c0-8.487-5.573-13.972-14.197-13.972c-8.625,0-14.198,5.485-14.198,13.972  c0,9.379,7.36,13.65,14.198,13.65C60.176,28.293,67.535,24.022,67.535,14.643 M42.485,14.071c0-6.105,4.464-10.371,10.853-10.371  c6.389,0,10.851,4.266,10.851,10.371c0,8.146-5.606,11.049-10.851,11.049C45.336,25.12,42.485,19.413,42.485,14.071"/>
<path style="fill:#1F1C1A;" d="M143.024,27.65h2.036c0.361,0,0.654-0.293,0.654-0.655V14.644c0-8.487-4.315-13.972-12.938-13.972  c-8.625,0-12.941,5.484-12.941,13.972v12.352c0,0.362,0.293,0.655,0.654,0.655h2.037c0.361,0,0.654-0.293,0.654-0.655v-7.977h19.188  v7.977C142.369,27.357,142.663,27.65,143.024,27.65 M123.18,15.846v-1.774c0-6.105,3.205-10.371,9.596-10.371  c6.389,0,9.593,4.265,9.593,10.371v1.774H123.18z"/>
<path style="fill:#1F1C1A;" d="M84.451,1.313h-1.972c-0.362,0-0.656,0.293-0.656,0.655v25.028c0,0.362,0.294,0.655,0.656,0.655  h1.972c0.361,0,0.655-0.293,0.655-0.655v-7.943l6.585-5.597l11.427,13.86c0.175,0.214,0.435,0.335,0.707,0.335h3.149  c0.331,0,0.514-0.387,0.303-0.644L94.258,11.311l11.102-9.304c0.282-0.236,0.115-0.694-0.252-0.694h-3.626  c-0.217,0-0.427,0.078-0.593,0.217L85.106,14.902V1.967C85.106,1.606,84.812,1.313,84.451,1.313"/>
</svg>