<svg id="svg" xmlns="http://www.w3.org/2000/svg" xmlns:xlink="http://www.w3.org/1999/xlink" width="400" height="466.6666666666667" viewBox="0, 0, 400,466.6666666666667"><g id="svgg"><path id="path0" d="M14.000 233.000 L 14.000 452.000 199.667 452.000 L 385.333 452.000 385.333 233.000 L 385.333 14.000 199.667 14.000 L 14.000 14.000 14.000 233.000 M365.834 233.167 L 365.667 433.000 199.333 433.000 L 33.000 433.000 32.832 233.167 L 32.664 33.333 199.333 33.333 L 366.002 33.333 365.834 233.167 M157.496 137.833 L 157.667 185.667 178.667 185.655 C 202.009 185.641,204.973 185.217,214.199 180.571 C 255.466 159.791,247.907 102.214,202.484 91.324 C 197.664 90.169,194.598 90.009,177.162 90.005 L 157.325 90.000 157.496 137.833 M191.695 109.330 C 214.288 111.330,226.593 125.283,222.397 144.144 C 219.032 159.267,207.247 166.667,186.527 166.667 L 176.667 166.667 176.667 138.111 C 176.667 122.406,176.867 109.356,177.111 109.111 C 177.735 108.487,183.082 108.567,191.695 109.330 M103.333 235.667 L 103.333 245.333 199.333 245.333 L 295.333 245.333 295.333 235.667 L 295.333 226.000 199.333 226.000 L 103.333 226.000 103.333 235.667 M159.129 287.760 C 158.875 288.014,158.667 309.772,158.667 336.111 L 158.667 384.000 168.000 384.000 C 177.197 384.000,177.335 383.978,177.461 382.500 C 177.531 381.675,177.606 372.750,177.627 362.667 L 177.667 344.333 199.500 344.158 L 221.333 343.982 221.333 364.009 L 221.333 384.037 230.833 383.852 L 240.333 383.667 240.333 335.667 L 240.333 287.667 231.000 287.667 L 221.667 287.667 221.489 306.176 L 221.312 324.685 199.489 324.509 L 177.667 324.333 177.630 306.000 L 177.592 287.667 168.592 287.482 C 163.642 287.380,159.383 287.505,159.129 287.760 " stroke="none" fill="#000000" fill-rule="evenodd"></path></g></svg>