<?xml version="1.0" ?><svg id="Layer_1" style="enable-background:new 0 0 50 50;" version="1.1" viewBox="0 0 50 50" xml:space="preserve" xmlns="http://www.w3.org/2000/svg" xmlns:xlink="http://www.w3.org/1999/xlink"><style type="text/css">
	.st0{fill:#F0C4DB;}
	.st1{fill:#FF9D9C;}
	.st2{fill:#9BEAF9;}
	.st3{fill:#E9F4BC;}
	.st4{fill:#505050;}
	.st5{fill:#FEBECC;}
	.st6{fill:#FFFFFF;}
	.st7{fill:#FDE4A1;}
	.st8{fill:#FEE7B5;}
	.st9{fill:#CDF6FC;}
	.st10{fill:#F2C6DD;}
	.st11{opacity:0.1;}
</style><g><path class="st0" d="M20.65,36.55h4.37V1.12c-11.6,0-21,9.4-21,21c0,10.1,7.13,18.52,16.63,20.54V36.55z"/><g><g><g><polyline class="st1" points="37.92,33.4 43.89,43.34 37.04,40.97 35.91,48.12 28.94,36.52     "/><polyline class="st1" points="18.12,33.4 12.16,43.34 19.01,40.97 20.14,48.12 27.1,36.52     "/></g><circle class="st6" cx="28.02" cy="19.33" r="17.21"/><circle class="st3" cx="28.02" cy="19.33" r="12.76"/></g><g><path class="st4" d="M10.93,17.16c0.04,0.01,0.09,0.01,0.13,0.01c0.37,0,0.68-0.26,0.74-0.62c0.03-0.2-0.01-0.4-0.13-0.56     c-0.11-0.16-0.29-0.27-0.48-0.3c-0.41-0.08-0.8,0.2-0.87,0.6v0.01C10.25,16.7,10.53,17.09,10.93,17.16z"/><path class="st4" d="M28.02,32.84c7.45,0,13.51-6.06,13.51-13.51c0-7.45-6.06-13.51-13.51-13.51s-13.51,6.06-13.51,13.51     C14.52,26.78,20.58,32.84,28.02,32.84z M28.02,7.33c6.62,0,12.01,5.39,12.01,12.01c0,6.62-5.39,12.01-12.01,12.01     s-12.01-5.39-12.01-12.01C16.02,12.71,21.4,7.33,28.02,7.33z"/><path class="st4" d="M25.22,23.52c-0.41,0-0.75,0.34-0.75,0.75s0.34,0.75,0.75,0.75h5.61c0.41,0,0.75-0.34,0.75-0.75     s-0.34-0.75-0.75-0.75h-2.06V12.24c0-0.29-0.17-0.56-0.44-0.68c-0.27-0.12-0.58-0.08-0.8,0.11l-2.61,2.26     c-0.31,0.27-0.35,0.74-0.08,1.06s0.75,0.35,1.06,0.08l1.37-1.18v9.64H25.22z"/><path class="st4" d="M38.9,33.59c4.29-3.29,7.07-8.45,7.07-14.25c0-9.9-8.05-17.96-17.95-17.96c-3.96,0-7.72,1.27-10.86,3.66     c-3.04,2.31-5.31,5.59-6.38,9.24c-0.11,0.39,0.11,0.81,0.51,0.93c0.39,0.11,0.82-0.13,0.93-0.51c2.04-6.96,8.53-11.82,15.8-11.82     c9.05,0.02,16.44,7.4,16.45,16.46c-0.01,9.06-7.4,16.44-16.45,16.46c-9.06-0.02-16.45-7.4-16.46-16.46     c0-0.29,0.01-0.59,0.02-0.88c0.01-0.2-0.06-0.39-0.19-0.54c-0.14-0.15-0.32-0.24-0.52-0.25c-0.41-0.03-0.77,0.3-0.79,0.71     c-0.02,0.34-0.02,0.66-0.02,0.96c0,5.81,2.78,10.97,7.07,14.25l-5.63,9.37c-0.16,0.27-0.14,0.61,0.06,0.86     c0.2,0.25,0.53,0.34,0.83,0.24l6-2.07l0.99,6.27c0.05,0.31,0.29,0.56,0.6,0.62c0.05,0.01,0.1,0.01,0.14,0.01     c0.26,0,0.51-0.14,0.64-0.36l6.75-11.24c0.17,0,0.33,0.03,0.5,0.03c0.16,0,0.32-0.02,0.49-0.02l6.75,11.24     c0.14,0.23,0.38,0.36,0.64,0.36c0.05,0,0.1,0,0.14-0.01c0.31-0.06,0.55-0.31,0.6-0.62l0.99-6.27l6,2.07     c0.3,0.1,0.63,0.01,0.83-0.24s0.22-0.59,0.06-0.86L38.9,33.59z M20.55,45.97l-0.81-5.11c-0.03-0.22-0.16-0.41-0.35-0.53     c-0.19-0.11-0.42-0.14-0.63-0.07l-4.9,1.69l4.51-7.51c2.21,1.42,4.75,2.36,7.48,2.7L20.55,45.97z M37.28,40.26     c-0.21-0.07-0.44-0.05-0.63,0.07c-0.19,0.11-0.32,0.31-0.35,0.53l-0.81,5.11l-5.3-8.82c2.73-0.33,5.27-1.28,7.48-2.7l4.51,7.5     L37.28,40.26z"/></g></g></g></svg>