<svg version="1.1" viewBox="0 0 40 33.24" xmlns:xlink="http://www.w3.org/1999/xlink" xmlns="http://www.w3.org/2000/svg">
<path fill="#333333" d="M25.8,20.7c-4.5,1.9-12.7,1.6-14.3,1.9c-1.5,0.3-5.3-0.1-8,5.4C4.1,27.3,5,26.8,6,26.8c1.8,0,3.2,1.4,3.2,3.2c0,1.7-1.4,3.2-3.2,3.2c-1.3,0-2.4-0.8-2.9-1.9c0,0,0,0,0,0C3,31.2,3,31,2.9,30.9c0,0,0-0.1,0-0.1c0-0.1,0-0.2-0.1-0.3c0-0.1,0-0.3,0-0.4c0,0,0,0,0,0c0,0,0,0,0,0c0-0.1,0-0.2,0-0.3c0-0.4,0.1-0.8,0.1-1.2l0,0c0,0,0-0.1,0-0.1c0.4-2.4,1.2-4.9,1.2-4.9l0,0c0.4-1.4,0.7-2,0.7-2.1c0,0,0,0,0,0c0.9-2.1,2.4-4.4,4.7-5.2c0,0,1.9-0.8,6.6-0.7c0,0,0,0,0,0c0,0,0,0,0,0c0.3,0,0.7,0,1,0	c4.7,0.1,7.9-0.3,7.9-0.3c3.7-0.3,5.9-1,7.8-2.2C32.5,14.4,31,18.5,25.8,20.7z M37.2,4.4c-0.3,1-0.9,2.3-2,3.4c0,0-1.4,1.9-4.7,3.2c0,0-2.1,0.9-5.8,1.2c0,0-3.1,0.3-7.9,0.3c-0.3,0-1,0-1,0c0,0,0,0,0,0c-4.7,0-6.6,0.7-6.6,0.7c-2.3,0.8-3.8,3.1-4.7,5.2c0,0,0,0,0,0c0,0.1-1.1,2.7-2.1,7.4c0,0,0,0,0,0V15.1c0-0.5,0-1.1,0.1-1.6c0.4-3.4,2.4-6.3,5.3-7.8c0.6-0.4,3.4-1.5,7.8-1.6c1.3,0,8.8-0.1,12.1-0.2c7.7-0.3,9.9-1.3,9.9-1.3C37.4,3.8,37.2,4.4,37.2,4.4z"></path>			
</svg>