<svg version="1.1" id="Layer_1" xmlns="http://www.w3.org/2000/svg" xmlns:xlink="http://www.w3.org/1999/xlink" x="0px" y="0px" viewBox="0 0 255.4 282.3" style="enable-background:new 0 0 255.4 282.3;" xml:space="preserve">
<path d="M223.8,0c17.5,0,31.6,13.4,31.6,30.8s-14.1,30.9-31.6,30.9s-31.6-13.4-31.6-30.9S206.3,0,223.8,0z"/>
<path d="M118.2,218c-8.3-6.5-15.6-12.6-22-18.4l70-70l-30.3-30.2l-69.8,69.7c-15-17.9-22.9-33.6-22.9-45.4V2H0v272.3h42.9v-66.9  c13.2,14.2,29.5,29,48.8,44.3c23.8,18.8,50.7,29.5,50.9,29.5l2.9,1.1l14.7-36.7l1.6-3.2l-3.4-0.9C158.2,241.3,136.7,232.6,118.2,218  z"/>
</svg>