<svg xmlns="http://www.w3.org/2000/svg" xmlns:xlink="http://www.w3.org/1999/xlink" width="94" height="96"><defs><path id="A" d="M.037.156h63.356v46.272H.037z"/><path id="B" d="M.433.287h41.495v80.676H.433z"/></defs><g fill="none" fill-rule="evenodd"><mask id="C" fill="#fff"><use xlink:href="#A"/></mask><g fill="#282927"><path d="M44.596 43.97c.177.52.324 2.46-.32 2.46-.24 0-16.675-.097-19.053-.12-.155-.002-.278-.13-.278-.3v-2.163c0-.25.258-.233.44-.27.414-.08 3.77-.7 4.2-5.847s.048-22.206.048-22.206-.485.47-.874 1.875l-7.103 24.934a.56.56 0 0 1-.54.417h-1.263a.56.56 0 0 1-.512-.34L8.537 17.607a7021.86 7021.86 0 0 0-.025 15.55c0 2.603.522 7.123 2.27 9.05 1.56 1.72 3.9 1.653 4.724 1.705.26.017.322.06.322.223l.012 1.756s.02.437-.375.437L.43 46.425c-.233.002-.422-.188-.424-.427l-.003-2.065c.002-.12.074-.222.184-.263.542-.206 2.12-.933 2.805-1.587.858-.82 2.208-2.42 2.67-6.848.502-4.83.12-15.708.12-16.933 0-2.24-1.743-3.587-3.004-4.2-.88-.436-1.507-.4-1.905-.494a.57.57 0 0 1-.446-.558L.38 9.577a.57.57 0 0 1 .563-.587h.997l13.538.022c.23 0 .44.147.523.368L23.03 27.9l4.7-16.46c.302-.644 1.042-2.365 2.458-2.438 1.254-.065 10.084-.115 11.188-.167a31.72 31.72 0 0 1 1.41-.034.56.56 0 0 1 .553.558l.03 2.293c0 .4-3.056.133-3.172 3.9s-.01 16.126-.01 19c0 3.524.834 7.894 2.23 8.694 1.05.6 2.003.212 2.18.734m18.796-10.865c.018-1.218-.542-1.213-.8-1.268-1.518-.313-3.42-2.332-3.604-6.326-.12-2.62.47-11.798.2-12.66s-1.334-1.485-2.435-1.198c-.707.182-8.986 2.034-10.3 2.325-.1.024-.2.113-.215.225-.115.573-.346 2.148.95 2.148 2.16 0 3.503 1.973 3.478 3.687s-.3 6.857-.33 8.875-2.095 2.287-2.98 2.374-1.254.115-1.32.632c-.1.782.027 1.86.04 2.02.02.248.203.38.45.38.894 0 11.166-.053 14.192.2 1.568.132 2.658.302 2.685-1.414M58.926 4.168c.04-2.745-2.36-4-4.165-4C51.34.132 49.078 1.593 48.8 4.6s1.695 5.102 4.27 5.157c4.306.1 5.812-2.7 5.855-5.6" mask="url(#C)"/><path d="M48 82.528c.018-1.202-.56-1.197-.84-1.252-1.57-.3-3.536-2.3-3.727-6.243-.125-2.588.487-11.644.196-12.495s-1.38-1.466-2.518-1.183c-.73.18-9.294 2.007-10.642 2.294-.113.024-.198.1-.222.223-.12.566-.357 2.12.983 2.12 2.233 0 3.623 1.948 3.597 3.64s-.3 6.767-.34 8.76-2.167 2.257-3.082 2.343-1.297.114-1.365.625c-.103.772.028 1.836.04 1.993.02.244.2.375.465.375.924 0 11.55-.053 14.677.198 1.622.13 2.75.298 2.777-1.395m-4.62-28.57c.043-2.7-2.44-3.946-4.307-3.96-3.538-.024-5.878 1.418-6.165 4.387s1.753 5.035 4.417 5.1c4.454.1 6-2.656 6.056-5.517m23.042-9.545l-6.613-.08.048-6.896c0-.287-.167-.44-.74-.44-.507 0-.665.034-1 .287-.23.177-4.275 3.547-6.35 4.75-1.734 1.007-3.8 1.895-4.444 2.16a.43.43 0 0 0-.252.311c-.105.494-.24 1.6.696 1.6 1.678 0 3.546.004 3.534 1.74l-.278 13.63a5.77 5.77 0 0 0 .43 2.036c.8 1.712 2.276 3.227 5.576 3.445 4.437.294 8.186-1.485 9.284-4.526.398-1.104.467-3.234.042-3.2a6.04 6.04 0 0 0-.654.077c-.106.02-.183.105-.216.214-.65 2.17-5.68 3.2-5.68-1.38v-11.4l6.7.018c.7.006.633-2.357-.087-2.357"/></g><g transform="translate(52 15)"><mask id="D" fill="#fff"><use xlink:href="#B"/></mask><path d="M23.756 6.9c-.3-.388-.392-.66-.392-1.06 0-.7.52-1.33 1.226-1.794 1.3-.845 3.272-1.006 5.172-.42 3.957 1.222 4.543 3.932 4.63 4.758a.28.28 0 0 0 .273.252l2.414-.052c1.64-.095 1.87-1.007 1.968-1.424.187-.8.003-4.647-.142-5.686C38.75.35 35.935.263 35.562.3c-.658.05-1.087.2-1.313.464-.135.16-.177.345-.177.6 0 .6.5 1.652.5 1.652s-.216-.135-.46-.25c-1.32-.646-4.44-2.4-9.576-1.978-6 .48-9.27 2.96-9.2 7.135.08 4.686 4.587 7.032 6.164 7.486 4.27 1.23 8.1 1.333 9.334 1.772.747.266 1.317.62 1.273 1.374-.1 1.58-2.153 2.556-6.38 2.442-5.4-.147-7.222-4.754-7.83-6.163-.253-.583-.318-.683-.557-.683h-.002a232.59 232.59 0 0 0-2.425.124c-.143.008-.256.122-.26.267l-.286 9.255c.015.215.05.716.6.8l2.446.323a.57.57 0 0 0 .635-.476c.138-.844.532-2.386 1.587-2.637.518-.124 1.073.272 1.842.816 1.465 1.036 8.478 4.804 15.772 1.143 2.915-1.463 4.677-3.33 4.677-6.255 0-5.377-6.755-6.86-11.065-7.6-3.024-.52-6.2-1.8-7.107-3M9.825 62.6c-.3-.388-.392-.66-.392-1.06 0-.7.52-1.33 1.227-1.794 1.3-.846 3.272-1.006 5.172-.42 3.957 1.222 4.542 3.932 4.63 4.758a.28.28 0 0 0 .273.252l2.414-.052c1.64-.095 1.87-1.007 1.97-1.424.187-.8.002-4.647-.143-5.686-.154-1.115-2.97-1.204-3.343-1.176-.658.05-1.086.2-1.313.464-.135.16-.177.346-.177.6 0 .6.5 1.652.5 1.652s-.216-.135-.46-.25c-1.32-.635-4.44-2.388-9.577-1.976-6 .48-9.27 2.96-9.2 7.135.08 4.686 4.587 7.032 6.165 7.486 4.27 1.23 8.1 1.332 9.333 1.77.747.266 1.317.62 1.274 1.374-.092 1.58-2.154 2.557-6.38 2.442-5.408-.146-7.22-4.754-7.83-6.163-.253-.584-.318-.683-.557-.683H3.41a219.74 219.74 0 0 0-2.424.123c-.144.01-.256.123-.26.268L.44 79.475c.015.215.05.717.602.8l2.445.323a.57.57 0 0 0 .635-.476c.138-.844.532-2.386 1.587-2.637.518-.124 1.073.272 1.843.816 1.465 1.036 8.477 4.804 15.772 1.143C26.238 77.97 28 76.104 28 73.18c0-5.377-6.755-6.86-11.065-7.6-3.024-.52-6.2-1.8-7.107-3" mask="url(#D)" fill="#282927"/></g><path d="M29.964 58.94c-.496-3.017-5.248-3.967-7.882-3.94-5.734.06-11.46 4.406-11.4 9.544l.036 2.5-4.255.02c-.236.001-.457.17-.457.397 0 .6-.1 1.68.613 1.68 3.345 0 4.57-.07 4.587 1.57v13.015c0 1.93-1.968 2.24-2.82 2.346s-1.26.14-1.26.638c0 .476-.048 1.453 0 1.948.02.2.254.334.452.33l18.8-.278c.757 0 .627-2.26-.06-2.24-3.398.098-5.61-1.61-5.66-6.203V69.5h4.53c1.276 0 1.127-2.278.2-2.278h-3.053c-1.243 0-2.32-1.035-3.018-3.844-.647-2.608-.488-5.82 1.875-5.678 1.303.076 2.59 2.732 2.938 4.79.05.3.238.565.522.697 2.796 1.293 5.695-1.85 5.302-4.237" fill="#282927"/></g></svg>